<?xml version="1.0" encoding="UTF-8" standalone="no"?>
<!DOCTYPE svg PUBLIC "-//W3C//DTD SVG 1.1//EN" "http://www.w3.org/Graphics/SVG/1.1/DTD/svg11.dtd">
<svg width="100%" height="100%" viewBox="0 0 217 217" version="1.1" xmlns="http://www.w3.org/2000/svg" xmlns:xlink="http://www.w3.org/1999/xlink" xml:space="preserve" xmlns:serif="http://www.serif.com/" style="fill-rule:evenodd;clip-rule:evenodd;stroke-linejoin:round;stroke-miterlimit:2;">
    <g transform="matrix(1,0,0,1,-447.998,-170.079)">
        <g transform="matrix(7.20597,0,0,7.20597,440.792,162.873)">
            <g id="graph">
                <path id="arrow" d="M29,1L29,8L27,8L27,4.424L17.375,14.049L8.745,5.299L4.587,9.457L3.173,8.043L8.755,2.461L17.384,11.21L25.594,3L22,3L22,1L29,1Z" style="fill-rule:nonzero;"/>
            </g>
        </g>
        <g transform="matrix(7.20597,0,0,7.20597,440.792,162.873)">
            <g id="graph1" serif:id="graph">
                <path id="bars" d="M10.27,13L10.27,29L12.409,29L12.41,18L19.58,18L19.579,29L21.72,29L21.72,14L28.89,14L28.89,29L31,29L31,31L1,31L1,29L3.1,29L3.1,13L10.27,13ZM8.27,15L5.1,15L5.1,29L8.27,29L8.27,15ZM17.58,20L14.41,20L14.41,29L17.58,29L17.58,20ZM26.89,16L23.72,16L23.72,29L26.89,29L26.89,16Z" style="fill-rule:nonzero;"/>
            </g>
        </g>
    </g>
<style>
@media (prefers-color-scheme: dark) {
      #bars{ fill: #ffffff; }
	  #arrow{ fill: #43F8B6 }
    }

@media (prefers-color-scheme: light) {
      #bars{ fill: #034B45; }
	  #arrow{fill: #034B45}
    }
</style>
</svg>
